<?xml version="1.0" standalone="no"?>
<!DOCTYPE svg PUBLIC "-//W3C//DTD SVG 20010904//EN"
 "http://www.w3.org/TR/2001/REC-SVG-20010904/DTD/svg10.dtd">
<svg version="1.0" xmlns="http://www.w3.org/2000/svg"
 width="500.000000pt" height="728.000000pt" viewBox="0 0 500.000000 728.000000"
 preserveAspectRatio="xMidYMid meet">
<metadata>
Created by potrace 1.15, written by Peter Selinger 2001-2017
</metadata>
<g transform="translate(0.000000,728.000000) scale(0.100000,-0.100000)"
fill="#000000" stroke="none">
<path d="M945 7251 c-69 -25 -72 -25 -335 -23 -242 2 -509 -13 -527 -31 -17
-18 -33 -278 -32 -527 1 -276 -4 -339 -36 -401 -17 -32 -19 -53 -5 -44 14 9
50 132 50 173 0 19 2 33 5 30 5 -5 7 -2497 5 -4743 -1 -754 -1 -760 -20 -702
-17 55 -38 92 -47 83 -2 -2 4 -21 15 -43 34 -66 41 -146 46 -533 2 -206 8
-383 11 -393 15 -38 39 -40 430 -43 398 -2 397 -2 520 -49 16 -6 18 -5 8 5 -6
7 -36 21 -65 31 -52 18 -43 18 727 19 429 0 1143 1 1587 3 443 1 804 -1 801
-5 -2 -5 -12 -8 -21 -8 -23 -1 -106 -39 -99 -46 3 -3 19 1 35 10 64 33 126 38
502 41 206 1 383 6 393 10 37 16 40 40 43 435 4 393 9 449 45 522 22 43 23 52
8 42 -13 -7 -38 -64 -49 -109 -9 -36 -10 41 -10 2225 -1 2136 2 3263 6 3230
10 -67 28 -138 41 -163 21 -41 27 -26 8 19 -32 78 -37 130 -36 409 1 256 -14
504 -33 522 -18 18 -272 33 -511 31 -266 -3 -327 3 -398 39 -16 8 -31 12 -34
9 -10 -9 81 -45 138 -55 61 -10 -541 -14 -1861 -12 -1523 2 -1413 1 -1344 16
57 12 124 39 124 50 0 7 -7 5 -85 -24z m-446 -120 c20 -11 43 -27 50 -35 12
-14 9 -16 -25 -16 -22 0 -66 11 -99 25 -80 33 -138 33 -171 0 -14 -14 -31 -25
-39 -25 -10 0 -15 -10 -15 -29 0 -21 -6 -32 -20 -36 -39 -12 -40 -117 -2 -197
12 -24 22 -64 22 -87 0 -38 -2 -42 -16 -30 -8 7 -24 30 -35 50 -17 34 -19 60
-19 219 l0 180 165 0 c144 0 171 -3 204 -19z m326 -6 c97 -17 155 -13 155 10
0 23 3028 22 3036 0 10 -25 65 -27 184 -6 132 24 172 26 119 6 -19 -7 -54 -22
-77 -34 l-41 -21 -1698 0 -1698 0 -50 25 c-27 13 -57 25 -65 25 -8 0 -22 5
-30 11 -18 13 30 8 165 -16z m4045 -153 c0 -167 -1 -182 -23 -222 -13 -24 -28
-45 -35 -48 -20 -6 -14 73 8 111 31 52 43 131 25 173 -8 19 -21 34 -29 34 -11
0 -16 10 -16 30 0 20 -5 30 -15 30 -8 0 -26 12 -40 26 -24 24 -32 26 -84 21
-32 -2 -76 -14 -99 -26 -23 -12 -60 -21 -83 -21 -37 0 -40 2 -28 17 35 42 87
53 257 53 l162 0 0 -178z m-4612 64 c13 -30 102 -74 171 -85 104 -16 188 22
176 81 -6 26 -5 28 27 28 27 0 37 -6 51 -30 10 -16 25 -30 33 -30 16 0 19 26
4 35 -19 12 -10 25 18 25 19 0 39 -11 62 -35 19 -19 40 -35 47 -35 16 0 17 24
3 51 -11 19 11 19 1657 19 1138 -1 1662 -4 1651 -11 -21 -12 -24 -59 -5 -59 7
0 28 16 47 35 23 24 43 35 62 35 28 0 37 -13 18 -25 -15 -9 -12 -35 4 -35 8 0
23 14 33 30 14 24 24 30 51 30 32 0 34 -2 28 -26 -9 -35 24 -70 76 -85 75 -20
236 31 272 86 9 14 21 25 26 25 20 0 9 -37 -19 -64 -48 -46 -74 -119 -75 -208
-1 -93 21 -133 73 -133 29 0 31 -2 31 -35 0 -28 -6 -38 -30 -52 -40 -23 -40
-42 0 -35 28 6 30 4 30 -21 0 -18 -11 -39 -30 -57 -46 -44 -39 -81 11 -55 19
11 19 -24 19 -2770 0 -2780 0 -2780 -20 -2760 -11 11 -27 20 -35 20 -26 0 -16
-35 20 -70 24 -23 35 -43 35 -62 0 -28 -13 -37 -25 -18 -8 13 -45 13 -45 0 0
-6 16 -20 35 -31 29 -17 35 -27 35 -54 0 -31 -2 -32 -36 -31 -28 1 -41 -5 -57
-26 -50 -66 -21 -237 54 -311 39 -40 51 -77 24 -77 -8 0 -21 13 -30 29 -29 57
-177 107 -265 91 -65 -12 -97 -50 -80 -94 9 -25 8 -26 -26 -26 -29 0 -38 6
-55 35 -12 19 -27 35 -35 35 -18 0 -18 -15 2 -45 16 -25 16 -25 -13 -25 -21 0
-40 11 -68 40 -21 22 -45 40 -52 40 -21 0 -15 -37 9 -60 l22 -20 -1672 0
-1671 0 24 24 c25 25 25 56 1 56 -7 0 -30 -18 -51 -40 -28 -29 -47 -40 -68
-40 -29 0 -29 0 -13 25 20 30 20 45 2 45 -8 0 -24 -16 -36 -35 -18 -29 -28
-35 -55 -35 -34 0 -34 0 -23 32 10 29 9 33 -22 61 -31 28 -36 29 -114 25 -98
-4 -187 -41 -211 -89 -9 -16 -22 -29 -30 -29 -27 0 -15 37 24 77 75 74 104
245 54 311 -16 21 -29 27 -57 26 -34 -1 -36 0 -36 31 0 27 6 37 35 54 19 11
35 25 35 31 0 13 -26 13 -51 0 -17 -9 -19 -7 -19 18 0 19 11 39 35 62 37 36
46 70 18 70 -9 0 -25 -7 -35 -17 -17 -16 -18 71 -18 2762 0 2162 3 2776 12
2767 7 -7 20 -12 30 -12 28 0 22 33 -12 65 -19 18 -30 39 -30 57 0 25 2 27 30
22 40 -8 40 11 0 34 -24 14 -30 24 -30 53 0 33 2 35 29 31 22 -3 33 2 49 23
30 38 37 88 23 163 -14 75 -38 127 -75 161 -28 26 -35 61 -13 61 8 0 19 -11
25 -24z m119 -1 c50 -34 118 -33 117 3 0 19 4 22 42 22 29 0 44 -5 48 -16 12
-30 6 -44 -26 -65 -27 -16 -45 -19 -93 -16 -69 5 -153 38 -186 73 l-22 24 41
0 c28 0 53 -8 79 -25z m4129 3 c-1 -36 67 -37 117 -3 26 17 51 25 79 25 l41 0
-22 -24 c-33 -35 -112 -66 -184 -72 -51 -4 -68 -2 -94 15 -33 21 -39 35 -27
65 4 11 19 16 48 16 38 0 42 -3 42 -22z m-4217 -143 c25 -66 27 -154 5 -196
-12 -24 -21 -30 -42 -27 -24 3 -27 8 -30 44 -3 34 0 42 17 47 34 8 37 52 7
108 -16 32 -26 67 -26 92 l1 42 23 -27 c13 -15 34 -52 45 -83z m4466 -20 c-30
-61 -28 -103 6 -112 17 -5 20 -13 17 -47 -3 -36 -6 -41 -30 -44 -22 -3 -30 3
-44 29 -32 62 -2 221 54 282 16 19 17 18 20 -17 2 -24 -6 -55 -23 -91z m-4571
-403 c15 -28 16 -264 16 -2839 l0 -2808 -25 -60 c-30 -74 -32 -104 -2 -50 l22
40 3 -28 c2 -16 -4 -40 -14 -55 -16 -24 -16 -26 -1 -13 32 26 21 -43 -16 -95
-28 -41 -32 -43 -35 -23 -2 12 2 33 9 46 10 18 10 26 1 35 -17 17 -15 51 8
163 11 53 20 124 20 157 0 51 -3 61 -20 65 -20 5 -20 14 -20 2633 0 2327 2
2629 15 2634 20 7 20 84 0 196 -20 116 -19 150 4 84 10 -27 26 -64 35 -82z
m4672 2 c-21 -116 -21 -193 -1 -200 13 -5 15 -307 15 -2634 0 -2619 0 -2628
-20 -2633 -17 -4 -20 -13 -20 -64 0 -32 9 -101 20 -153 23 -110 25 -151 8
-168 -9 -9 -9 -17 1 -35 7 -13 11 -34 9 -46 -3 -20 -7 -18 -35 23 -32 45 -47
116 -22 100 8 -4 7 0 -1 15 -6 12 -10 34 -8 49 3 26 4 26 25 -13 30 -54 29
-28 -2 49 l-25 63 3 2814 2 2814 30 69 c36 83 41 69 21 -50z m-4551 -5894 c21
-41 19 -129 -5 -194 -21 -56 -54 -106 -71 -106 -17 0 -9 72 12 101 46 65 45
148 -2 136 -17 -4 -19 0 -19 38 0 45 7 53 47 54 15 1 27 -9 38 -29z m4459 24
c11 -4 16 -19 16 -49 0 -38 -2 -42 -19 -38 -25 6 -45 -30 -36 -65 3 -15 17
-44 31 -64 23 -36 34 -108 16 -108 -34 0 -84 111 -90 196 -7 105 23 151 82
128z m-4583 -160 c-28 -72 -28 -147 -1 -174 11 -11 20 -33 20 -50 0 -24 4 -30
20 -30 12 0 34 -10 50 -21 24 -18 38 -21 83 -16 30 3 69 13 86 22 20 10 50 15
79 13 l47 -3 -45 -30 -45 -30 -172 -3 -173 -4 0 174 c0 152 3 178 21 217 11
25 25 51 32 60 22 27 20 -64 -2 -125z m4670 61 c16 -34 19 -65 19 -212 l0
-173 -160 0 c-142 0 -165 2 -205 21 -24 11 -49 27 -56 35 -18 22 65 18 129 -6
67 -26 122 -26 155 0 14 11 35 20 46 20 17 0 21 6 21 33 0 20 8 39 20 50 27
23 27 99 0 169 -11 29 -20 73 -20 98 1 43 1 44 16 25 9 -11 25 -38 35 -60z
m-4296 -200 c41 -17 52 -37 37 -71 -10 -20 -19 -24 -52 -24 -38 0 -41 2 -35
21 18 55 -98 50 -144 -5 -14 -17 -91 -23 -91 -8 0 12 40 47 70 62 75 39 159
49 215 25z m4080 -14 c49 -22 95 -57 95 -73 0 -4 -47 -8 -105 -8 -92 0 -106 2
-114 19 -6 10 -7 21 -4 25 13 12 59 6 96 -14 46 -25 49 -17 5 10 -57 34 -127
23 -113 -19 6 -19 3 -21 -38 -21 -38 0 -46 3 -51 23 -10 38 -7 47 27 68 41 26
131 22 202 -10z m-3991 -112 c-4 -8 0 -7 15 1 12 6 34 10 49 8 27 -3 26 -4
-13 -26 -36 -20 -37 -21 -10 -15 17 3 49 14 73 25 42 17 114 18 1743 18 1536
0 1703 -2 1737 -16 20 -9 51 -20 67 -24 25 -7 27 -7 12 3 -52 33 -54 36 -24
37 16 0 38 -5 49 -11 15 -8 19 -8 14 0 -13 21 55 12 84 -11 15 -13 36 -28 46
-35 17 -11 16 -12 -13 -12 -17 -1 -35 3 -38 9 -8 13 -45 13 -45 0 0 -14 -63
-12 -129 5 -155 40 -258 41 -248 4 5 -19 -26 -19 -1509 -19 -1478 0 -1514 0
-1514 19 0 12 -9 21 -26 25 -30 8 -155 -9 -228 -30 -61 -17 -100 -18 -126 -2
-16 10 -24 10 -40 0 -11 -6 -32 -12 -47 -11 -26 0 -26 1 -9 12 10 7 31 22 45
34 27 23 98 33 85 12z"/>
<path d="M538 6853 c8 -3 12 -36 12 -113 0 -77 -4 -110 -12 -113 -7 -3 7 -5
32 -5 25 0 39 2 33 5 -8 3 -13 25 -13 59 l0 54 60 0 c59 0 60 -1 60 -28 0 -15
-4 -42 -9 -60 l-10 -32 42 0 c33 1 38 3 25 11 -15 8 -18 25 -18 114 0 73 4
105 13 108 6 3 -6 6 -27 6 -31 1 -37 -2 -28 -11 7 -7 12 -29 12 -50 l0 -38
-61 0 -61 0 4 50 3 50 -35 -1 c-19 0 -29 -3 -22 -6z"/>
<path d="M865 6811 c-63 -26 -81 -110 -33 -157 17 -18 40 -28 72 -31 42 -5 48
-3 81 30 37 37 46 78 25 118 -22 40 -95 60 -145 40z m68 -13 c34 -18 46 -40
47 -83 0 -46 -6 -57 -37 -74 -72 -38 -139 84 -78 144 27 28 37 30 68 13z"/>
<path d="M599 6427 c-30 -20 -34 -29 -37 -71 -3 -49 -3 -49 67 -117 77 -73 90
-109 53 -142 -41 -37 -106 -13 -124 46 -4 13 -6 2 -5 -28 l2 -50 54 -3 c97 -6
141 28 141 108 0 43 -3 48 -69 110 -38 36 -70 72 -71 80 -5 36 2 51 27 61 36
13 79 -5 92 -40 9 -24 9 -23 10 15 1 47 -8 54 -68 54 -23 0 -52 -9 -72 -23z"/>
<path d="M882 6388 c-6 -35 -18 -115 -28 -178 -12 -89 -21 -119 -36 -132 -20
-17 -18 -18 43 -17 44 1 56 3 39 8 -28 8 -29 14 -9 161 l12 84 57 -120 c31
-67 62 -124 67 -127 6 -4 36 47 69 118 34 73 61 120 65 113 3 -7 12 -64 19
-125 l14 -113 60 1 c34 1 51 4 39 6 -12 2 -26 10 -31 16 -6 7 -20 82 -32 167
-32 233 -26 230 -110 55 l-72 -150 -74 148 c-41 81 -76 147 -78 147 -2 0 -9
-28 -14 -62z"/>
<path d="M1360 6432 l25 -8 3 -154 c3 -172 0 -196 -26 -204 -9 -3 31 -4 90 -3
118 3 138 12 165 75 11 27 11 37 -1 66 -8 19 -27 42 -43 52 -15 10 -30 19 -32
21 -3 2 6 14 18 27 30 31 31 81 2 109 -19 19 -34 22 -124 24 -57 1 -91 -1 -77
-5z m171 -201 c53 -53 33 -151 -31 -151 -42 0 -50 17 -50 102 0 77 0 78 26 78
15 0 38 -12 55 -29z"/>
<path d="M1707 6430 c25 -10 30 -52 25 -234 -3 -110 -5 -118 -25 -126 -15 -6
4 -9 63 -8 50 0 75 3 60 7 -24 7 -25 11 -28 94 l-3 87 96 0 95 0 0 -85 c0 -79
-2 -86 -22 -95 -16 -6 2 -9 62 -8 50 0 75 3 60 7 l-25 7 -3 172 c-2 171 -2
173 20 182 17 6 1 9 -57 9 -58 0 -74 -3 -57 -9 20 -8 22 -16 22 -80 l0 -70
-95 0 -95 0 0 70 c0 64 2 72 23 80 16 6 0 9 -58 9 -55 0 -73 -3 -58 -9z"/>
<path d="M4453 5893 c-17 -22 -22 -24 -22 -10 -1 23 -28 22 -41 -2 -11 -21 2
-37 20 -26 15 9 12 -21 -4 -34 -11 -9 -15 -7 -20 11 l-6 23 -20 -24 c-23 -27
-17 -45 12 -35 19 6 19 5 2 -21 -17 -26 -18 -27 -25 -6 -9 23 -34 20 -43 -6
-8 -21 3 -35 23 -28 13 5 14 4 4 -6 -7 -7 -13 -33 -13 -58 0 -43 -10 -59 -127
-221 -70 -96 -207 -287 -306 -425 -99 -137 -186 -256 -192 -263 -11 -12 -17
-11 -39 3 -14 10 -24 21 -21 25 7 12 -16 25 -24 14 -3 -5 -34 -9 -68 -9 -54
-1 -67 -5 -100 -31 -53 -43 -71 -79 -78 -153 -3 -35 -10 -72 -16 -83 -13 -25
-68 -48 -114 -48 -61 0 -123 -23 -182 -67 -76 -56 -120 -114 -139 -181 -72
-247 211 -543 498 -519 121 10 198 60 261 168 56 97 68 201 35 311 -18 62 -6
82 69 116 75 33 124 79 142 131 24 72 9 88 -51 51 -44 -27 -79 -25 -112 5 -47
44 -37 68 111 280 27 39 149 216 272 395 275 399 284 410 321 410 20 0 31 6
35 20 3 11 10 20 15 20 5 0 7 -7 4 -15 -7 -18 17 -20 34 -3 20 20 15 41 -8 35
-23 -6 -24 -3 -10 24 13 23 32 26 23 3 -4 -12 0 -15 18 -12 16 2 25 11 27 27
3 20 0 23 -17 18 -24 -6 -26 1 -7 26 16 20 27 23 20 3 -8 -21 12 -28 31 -10
20 20 14 40 -10 36 -16 -3 -16 -1 3 25 l20 28 -27 33 c-15 17 -32 32 -38 32
-6 0 -13 6 -16 14 -3 7 -16 16 -29 18 -13 3 -30 8 -38 12 -10 4 -23 -3 -37
-21z"/>
<path d="M894 5473 c4 -225 9 -442 12 -484 l6 -77 -47 15 c-161 53 -362 -152
-251 -256 69 -65 222 -17 284 88 l27 46 -3 297 -3 298 103 -61 c164 -96 197
-137 199 -246 l1 -58 9 45 c21 100 -16 171 -143 278 -88 74 -126 120 -153 184
-13 33 -21 108 -11 108 2 0 39 -21 82 -47 139 -83 202 -169 205 -277 1 -35 2
-38 9 -16 16 51 10 104 -19 166 -22 48 -47 76 -117 138 -99 87 -161 169 -170
227 -4 21 -11 39 -16 39 -7 0 -8 -141 -4 -407z"/>
<path d="M1934 5809 c-33 -36 -133 -104 -210 -142 -60 -31 -228 -67 -308 -67
l-55 0 6 -504 6 -505 -44 16 c-112 39 -253 -31 -294 -146 -19 -54 -19 -65 0
-105 18 -37 70 -66 119 -66 47 0 150 55 184 98 16 20 34 53 40 72 6 21 12 225
16 518 3 266 8 487 10 491 3 4 49 11 103 14 164 11 271 48 390 138 35 27 66
49 69 49 2 0 4 -188 4 -419 l0 -419 -42 15 c-84 29 -187 -2 -250 -77 -56 -64
-70 -144 -35 -191 17 -22 71 -49 100 -49 92 0 210 83 235 166 18 62 17 1144
-1 1144 -7 0 -26 -14 -43 -31z"/>
<path d="M2275 4930 l7 -499 -51 6 c-147 17 -331 -109 -331 -227 0 -156 307
-97 390 75 22 45 22 51 18 426 l-3 381 63 -5 c124 -10 227 -87 259 -196 20
-71 13 -126 -30 -232 -32 -78 -63 -194 -35 -129 6 14 34 75 62 135 46 99 51
117 50 177 0 56 -6 78 -35 135 -30 60 -43 74 -114 123 -44 30 -100 75 -124
100 -43 44 -101 148 -101 182 0 25 -11 48 -22 48 -7 0 -8 -162 -3 -500z"/>
<path d="M3529 3626 c-69 -15 -186 -58 -229 -85 -240 -148 -382 -438 -340
-693 29 -173 85 -283 205 -403 214 -215 518 -264 795 -128 79 39 109 60 180
132 69 69 94 103 127 171 56 115 77 204 77 320 -1 372 -293 675 -669 695 -47
3 -107 -1 -146 -9z"/>
<path d="M1085 3604 c-130 -4 -333 -24 -364 -36 -23 -8 -24 -11 -17 -88 11
-131 117 -468 176 -560 17 -26 69 -84 118 -131 60 -58 91 -95 98 -119 l10 -35
177 -1 c97 -1 178 -5 180 -9 1 -5 -11 -13 -28 -19 -29 -11 -30 -12 -30 -81 0
-88 -19 -127 -136 -284 -66 -89 -87 -111 -107 -111 -22 0 -15 10 60 88 140
145 197 265 172 360 -6 19 -13 22 -55 22 l-49 0 0 -45 c0 -25 -6 -60 -13 -78
-17 -40 -194 -307 -204 -308 -4 -1 -24 -15 -43 -32 -19 -16 -66 -45 -106 -63
-91 -41 -104 -68 -59 -122 41 -49 97 -61 325 -73 176 -10 221 -9 313 5 139 20
186 34 204 63 28 43 11 67 -95 130 -69 42 -102 68 -113 91 l-17 33 -4 -41 c-3
-35 -1 -39 15 -34 12 4 17 2 13 -4 -20 -33 -366 -43 -440 -13 -41 16 -26 24
22 11 51 -13 240 -20 312 -10 30 4 51 8 46 9 -5 0 -3 8 4 16 8 10 13 77 16
219 4 198 18 305 46 360 6 12 41 51 78 88 91 90 155 188 202 311 44 114 60
178 83 327 18 123 17 125 -71 146 -60 14 -507 25 -719 18z m331 -212 c66 -34
101 -69 133 -134 59 -117 35 -259 -57 -339 -60 -53 -117 -74 -202 -73 -177 0
-299 122 -293 296 3 120 74 214 198 265 46 19 172 11 221 -15z"/>
<path d="M1218 3396 c-97 -27 -173 -104 -199 -201 -25 -91 7 -203 76 -263 55
-49 94 -65 171 -70 126 -8 219 41 271 142 35 67 38 169 7 236 -57 123 -201
192 -326 156z m140 -82 c52 -26 61 -37 42 -49 -6 -4 -19 -24 -30 -46 -20 -38
-20 -39 -2 -39 11 0 36 11 55 25 l37 24 24 -32 c13 -18 27 -44 31 -58 9 -35
-9 -97 -39 -134 l-24 -30 -24 21 c-66 60 -95 45 -33 -18 l34 -36 -32 -13 c-40
-17 -164 -18 -193 -2 l-22 12 24 47 c13 26 22 49 20 51 -6 7 -61 -24 -75 -41
-19 -23 -28 -20 -48 17 -23 43 -23 160 0 204 l17 32 24 -23 c29 -30 86 -60 86
-46 0 5 -20 30 -44 55 l-44 46 24 16 c25 16 99 41 125 42 8 1 38 -11 67 -25z"/>
<path d="M1115 2599 c3 -10 -1 -44 -10 -77 -18 -71 -19 -137 -4 -181 11 -31 7
-58 -18 -130 -10 -28 159 232 178 274 10 22 19 57 19 78 l0 38 -47 -3 c-45 -3
-49 -6 -78 -52 -27 -45 -30 -58 -30 -132 0 -45 -4 -80 -9 -77 -4 3 -6 42 -4
87 3 65 10 92 31 130 15 27 27 50 27 51 0 2 -14 5 -30 7 -25 4 -29 2 -25 -13z"/>
<path d="M933 1300 c-41 -24 -53 -48 -53 -102 0 -92 87 -144 174 -103 82 39
90 159 14 205 -42 25 -94 25 -135 0z m114 -23 c39 -35 42 -126 6 -162 -26 -26
-78 -19 -107 16 -43 51 -33 149 17 169 28 11 56 3 84 -23z"/>
<path d="M1508 1313 c8 -3 12 -36 12 -113 0 -77 -4 -110 -12 -113 -7 -3 15 -6
48 -6 46 -1 68 4 84 17 29 24 30 70 1 93 -18 15 -20 22 -12 38 31 57 2 91 -77
90 -31 0 -51 -3 -44 -6z"/>
<path d="M2415 1300 c13 -21 7 -203 -7 -212 -8 -5 23 -8 74 -6 84 3 89 4 120
36 28 28 33 39 33 82 0 41 -5 54 -28 77 -25 26 -35 28 -113 32 -65 2 -85 0
-79 -9z m142 -26 c47 -30 57 -107 21 -148 -23 -26 -80 -38 -106 -22 -13 8 -17
177 -5 190 11 10 62 -1 90 -20z"/>
<path d="M1158 1271 c10 -6 13 -32 10 -100 l-3 -91 30 0 c22 0 26 3 17 12 -15
15 -16 74 -2 83 6 3 30 3 55 -1 43 -6 45 -8 45 -38 0 -18 -5 -37 -12 -44 -9
-9 -3 -12 28 -11 21 0 33 3 27 6 -9 3 -13 32 -13 93 0 61 4 90 13 93 6 3 -6 6
-27 6 -31 1 -37 -2 -28 -11 7 -7 12 -27 12 -45 l0 -33 -55 0 -55 0 0 33 c0 18
5 38 12 45 9 9 3 12 -27 12 -26 0 -35 -3 -27 -9z"/>
<path d="M1898 1273 c8 -3 12 -32 12 -93 0 -61 -4 -90 -12 -93 -7 -3 12 -6 42
-6 64 -1 100 18 100 54 0 13 -10 31 -22 39 -17 12 -20 18 -10 28 18 18 14 56
-7 68 -11 5 -41 10 -68 9 -26 0 -42 -3 -35 -6z"/>
<path d="M2725 1266 c-50 -22 -68 -82 -40 -135 41 -79 181 -58 200 31 19 85
-71 143 -160 104z m96 -25 c38 -38 40 -91 4 -126 -32 -32 -50 -31 -86 4 -44
45 -38 126 11 144 29 11 42 7 71 -22z"/>
<path d="M2936 1270 c-3 -8 -7 -54 -8 -103 -3 -85 -2 -87 20 -87 19 0 21 3 12
19 -5 11 -10 43 -10 73 l0 52 75 -74 c51 -51 76 -69 79 -59 3 8 7 53 8 102 l3
87 -25 -1 c-14 0 -19 -3 -12 -6 12 -5 18 -133 6 -133 -3 0 -36 33 -74 73 -49
52 -70 68 -74 57z"/>
<path d="M3734 1264 c-51 -25 -67 -80 -39 -133 41 -79 181 -58 200 31 19 86
-74 145 -161 102z m97 -23 c38 -38 40 -91 4 -126 -32 -32 -50 -31 -86 4 -44
45 -38 126 11 144 29 11 42 7 71 -22z"/>
<path d="M1268 898 c16 -16 16 -160 0 -176 -9 -9 -3 -12 27 -11 22 0 34 3 28
6 -8 3 -13 23 -13 48 l0 44 46 -49 c46 -49 47 -50 108 -50 33 0 56 4 50 8 -6
4 -14 36 -18 72 l-8 65 79 -75 78 -75 3 95 c2 60 7 97 15 102 7 4 -3 7 -23 7
-19 0 -29 -3 -22 -6 8 -3 12 -27 12 -71 l0 -66 -75 74 -75 74 0 -50 c0 -92
-11 -144 -30 -144 -21 0 -113 96 -107 113 2 7 23 27 46 45 33 25 38 32 22 32
-11 0 -39 -19 -61 -42 l-41 -43 3 43 c3 41 3 42 -26 42 -23 0 -27 -3 -18 -12z"/>
<path d="M1765 901 c-37 -16 -60 -51 -60 -93 0 -33 6 -45 33 -69 47 -43 102
-41 148 5 65 65 34 154 -56 162 -25 2 -54 0 -65 -5z m93 -37 c32 -36 30 -96
-3 -122 -74 -58 -158 66 -90 134 30 30 58 26 93 -12z"/>
<path d="M1937 904 c6 -3 26 -48 43 -100 18 -52 35 -92 40 -89 4 2 18 32 30
65 12 33 24 60 27 60 2 0 18 -30 35 -67 l30 -68 28 81 c15 44 33 90 39 102 10
19 9 22 -9 22 -11 0 -19 -3 -18 -7 4 -13 -24 -113 -32 -118 -4 -3 -18 21 -30
53 -13 31 -26 61 -30 65 -4 4 -14 -11 -23 -35 -9 -24 -21 -56 -28 -73 l-11
-30 -19 64 c-10 35 -16 68 -13 73 3 4 -12 8 -33 7 -21 0 -33 -3 -26 -5z"/>
<path d="M3438 898 c16 -16 16 -160 0 -176 -9 -9 -3 -12 27 -11 22 0 34 3 28
6 -18 7 -17 73 0 73 8 0 28 -18 46 -40 22 -28 40 -40 57 -40 l26 0 -31 26
c-46 39 -55 60 -36 86 36 52 5 88 -75 88 -42 0 -51 -3 -42 -12z"/>
</g>
</svg>
